<svg xmlns="http://www.w3.org/2000/svg" xmlns:xlink="http://www.w3.org/1999/xlink" width="64" zoomAndPan="magnify" viewBox="0 0 48 48" height="64" preserveAspectRatio="xMidYMid meet" version="1.0">
<defs><g/></defs>
<g fill="#ff0505" fill-opacity="1">
    <g transform="translate(3.799824, 33.951437)">
    <g>
        <path d="M 36.03125 -28.5625 C 36.03125 -26.382812 35.320312 -24.101562 33.90625 -21.71875 C 32.488281 -19.34375 30.535156 -17.269531 28.046875 -15.5 C 25.554688 -13.738281 22.984375 -12.628906 20.328125 -12.171875 C 18.796875 -9.085938 17.691406 -6.9375 17.015625 -5.71875 L 16.234375 -4.4375 C 21.191406 -3.207031 25.296875 -1.335938 28.546875 1.171875 C 30.203125 2.441406 31.316406 4.003906 31.890625 5.859375 C 32.191406 6.816406 32.34375 7.628906 32.34375 8.296875 C 32.34375 8.972656 32.210938 9.539062 31.953125 10 C 31.691406 10.46875 31.382812 10.789062 31.03125 10.96875 C 30.675781 11.144531 30.425781 11.234375 30.28125 11.234375 C 30.132812 11.234375 30.0625 11.171875 30.0625 11.046875 C 30.0625 10.921875 30.203125 10.550781 30.484375 9.9375 C 30.773438 9.320312 30.921875 8.597656 30.921875 7.765625 C 30.921875 6.941406 30.742188 6.03125 30.390625 5.03125 C 30.046875 4.03125 29.394531 3.109375 28.4375 2.265625 C 27.488281 1.429688 26.164062 0.644531 24.46875 -0.09375 C 22.78125 -0.832031 21.316406 -1.359375 20.078125 -1.671875 C 18.835938 -1.984375 17.175781 -2.34375 15.09375 -2.75 C 12.96875 0.238281 10.753906 2.28125 8.453125 3.375 C 7.066406 4.050781 5.84375 4.390625 4.78125 4.390625 C 3.71875 4.390625 2.773438 4.175781 1.953125 3.75 C 0.523438 3.050781 -0.1875 1.988281 -0.1875 0.5625 C -0.1875 -0.863281 0.75 -2.113281 2.625 -3.1875 C 4.75 -4.445312 7.628906 -5.078125 11.265625 -5.078125 C 12.566406 -5.078125 13.742188 -4.972656 14.796875 -4.765625 C 15.921875 -6.523438 17.238281 -8.945312 18.75 -12.03125 C 18.59375 -12.03125 18.453125 -12.03125 18.328125 -12.03125 C 16.753906 -12.03125 15.289062 -12.289062 13.9375 -12.8125 C 12.582031 -13.34375 11.503906 -14.054688 10.703125 -14.953125 C 9.648438 -16.128906 9.125 -17.457031 9.125 -18.9375 C 9.125 -19.71875 9.316406 -20.554688 9.703125 -21.453125 C 10.097656 -22.359375 10.960938 -23.273438 12.296875 -24.203125 C 13.640625 -25.128906 15.335938 -25.828125 17.390625 -26.296875 C 17.710938 -26.378906 17.988281 -26.421875 18.21875 -26.421875 C 18.445312 -26.421875 18.582031 -26.359375 18.625 -26.234375 C 18.675781 -26.109375 18.578125 -25.992188 18.328125 -25.890625 C 18.078125 -25.785156 17.789062 -25.710938 17.46875 -25.671875 C 16.394531 -25.546875 15.394531 -25.179688 14.46875 -24.578125 C 12.863281 -23.546875 11.742188 -21.96875 11.109375 -19.84375 C 10.960938 -19.34375 10.890625 -18.859375 10.890625 -18.390625 C 10.890625 -17.929688 10.976562 -17.375 11.15625 -16.71875 C 11.332031 -16.070312 11.707031 -15.398438 12.28125 -14.703125 C 12.851562 -14.015625 13.632812 -13.535156 14.625 -13.265625 C 15.613281 -12.992188 16.476562 -12.859375 17.21875 -12.859375 C 17.957031 -12.859375 18.640625 -12.894531 19.265625 -12.96875 L 22.46875 -21 C 24.664062 -26.664062 27.296875 -30.148438 30.359375 -31.453125 C 31.160156 -31.773438 31.941406 -31.9375 32.703125 -31.9375 C 33.460938 -31.9375 34.1875 -31.691406 34.875 -31.203125 C 35.570312 -30.710938 35.945312 -30.117188 36 -29.421875 C 36.019531 -29.117188 36.03125 -28.832031 36.03125 -28.5625 Z M 34.453125 -28.515625 C 34.453125 -29.472656 34.015625 -29.953125 33.140625 -29.953125 C 31.859375 -29.953125 30.304688 -28.835938 28.484375 -26.609375 C 27.046875 -24.828125 25.671875 -22.675781 24.359375 -20.15625 C 23.046875 -17.644531 21.875 -15.320312 20.84375 -13.1875 C 24.332031 -13.96875 27.472656 -15.878906 30.265625 -18.921875 C 33.054688 -21.960938 34.453125 -25.160156 34.453125 -28.515625 Z M 13.640625 -2.96875 C 12.410156 -3.238281 11.144531 -3.375 9.84375 -3.375 C 8.539062 -3.375 7.195312 -3.1875 5.8125 -2.8125 C 2.9375 -2.0625 1.25 -1 0.75 0.375 C 0.644531 0.625 0.59375 0.863281 0.59375 1.09375 C 0.59375 1.738281 0.945312 2.269531 1.65625 2.6875 C 2.375 3.101562 3.160156 3.3125 4.015625 3.3125 C 5.191406 3.3125 6.46875 2.984375 7.84375 2.328125 C 9.925781 1.328125 11.859375 -0.4375 13.640625 -2.96875 Z M 13.640625 -2.96875" stroke="#ff0505" stroke-width="0.5"/>
    </g>
    </g>
</g>
</svg>
